<?xml version="1.0" standalone="no"?>
<!DOCTYPE svg PUBLIC "-//W3C//DTD SVG 20010904//EN"
 "http://www.w3.org/TR/2001/REC-SVG-20010904/DTD/svg10.dtd">
<svg version="1.0" xmlns="http://www.w3.org/2000/svg"
 width="512.000000pt" height="512.000000pt" viewBox="0 0 512.000000 512.000000"
 preserveAspectRatio="xMidYMid meet">
<metadata>
Created by potrace 1.11, written by Peter Selinger 2001-2013
</metadata>
<g transform="translate(0.000000,512.000000) scale(0.100000,-0.100000)"
fill="#000000" stroke="none">
<path d="M2398 5115 c-2 -2 -41 -6 -88 -10 -46 -3 -87 -8 -90 -10 -3 -1 -30
-6 -60 -9 -45 -6 -123 -21 -210 -40 -242 -56 -557 -194 -785 -343 -454 -298
-789 -710 -988 -1213 -40 -103 -90 -258 -102 -319 -2 -13 -7 -31 -10 -41 -7
-23 -9 -32 -29 -150 -26 -159 -28 -188 -30 -393 -4 -279 24 -486 98 -745 199
-689 702 -1284 1346 -1589 201 -96 450 -178 620 -207 19 -3 62 -10 95 -16 166
-28 560 -35 715 -11 47 7 101 15 120 17 52 8 267 61 340 85 124 39 246 90 373
153 l127 64 1 -31 c1 -59 10 -92 36 -144 30 -61 60 -91 128 -129 44 -25 61
-28 135 -28 75 -1 91 3 135 28 76 43 115 90 151 181 4 11 8 152 10 314 1 235
4 297 15 305 19 15 93 105 166 201 105 140 206 312 277 475 21 47 42 94 47
105 52 113 136 433 155 590 3 28 9 82 14 120 8 75 6 507 -3 521 -3 5 -8 34
-11 64 -13 120 -74 370 -124 506 -232 633 -670 1128 -1262 1428 -251 127 -544
218 -805 251 -27 3 -66 8 -85 11 -35 5 -417 13 -422 9z"/>
</g>
</svg>
